<mxfile host="app.diagrams.net" agent="Mozilla/5.0 (Windows NT 10.0; Win64; x64) AppleWebKit/537.36 (KHTML, like Gecko) Chrome/141.0.0.0 Safari/537.36" version="28.2.5">
  <diagram name="Page-1" id="yyquFySezIsJXho6FXHs">
    <mxGraphModel dx="1737" dy="937" grid="1" gridSize="10" guides="1" tooltips="1" connect="1" arrows="1" fold="1" page="1" pageScale="1" pageWidth="850" pageHeight="1100" math="0" shadow="0">
      <root>
        <mxCell id="0" />
        <mxCell id="1" parent="0" />
        <mxCell id="2" value="Start" style="ellipse;whiteSpace=wrap;html=1;" vertex="1" parent="1">
          <mxGeometry x="200" y="40" width="120" height="50" as="geometry" />
        </mxCell>
        <mxCell id="3" value="ประกาศตัวแปร filename, word, count, fp" style="rectangle;whiteSpace=wrap;html=1;" vertex="1" parent="1">
          <mxGeometry x="180" y="120" width="160" height="60" as="geometry" />
        </mxCell>
        <mxCell id="4" value="รับชื่อไฟล์จากผู้ใช้ (Enter file name)" style="parallelogram;whiteSpace=wrap;html=1;" vertex="1" parent="1">
          <mxGeometry x="160" y="210" width="200" height="60" as="geometry" />
        </mxCell>
        <mxCell id="5" value="เปิดไฟล์ (fopen(filename,&#39;r&#39;))" style="rectangle;whiteSpace=wrap;html=1;" vertex="1" parent="1">
          <mxGeometry x="180" y="300" width="160" height="60" as="geometry" />
        </mxCell>
        <mxCell id="6" value="เปิดไฟล์สำเร็จหรือไม่?" style="rhombus;whiteSpace=wrap;html=1;" vertex="1" parent="1">
          <mxGeometry x="170" y="390" width="180" height="80" as="geometry" />
        </mxCell>
        <mxCell id="7" value="แสดงข้อความ Cannot open file และจบการทำงาน" style="rectangle;whiteSpace=wrap;html=1;" vertex="1" parent="1">
          <mxGeometry x="400" y="390" width="200" height="80" as="geometry" />
        </mxCell>
        <mxCell id="8" value="เริ่มนับคำในไฟล์ count=0" style="rectangle;whiteSpace=wrap;html=1;" vertex="1" parent="1">
          <mxGeometry x="180" y="510" width="160" height="60" as="geometry" />
        </mxCell>
        <mxCell id="9" value="อ่านคำจากไฟล์ได้หรือไม่? fscanf(...)" style="rhombus;whiteSpace=wrap;html=1;" vertex="1" parent="1">
          <mxGeometry x="170" y="600" width="180" height="80" as="geometry" />
        </mxCell>
        <mxCell id="10" value="count = count + 1" style="rectangle;whiteSpace=wrap;html=1;" vertex="1" parent="1">
          <mxGeometry x="180" y="710" width="160" height="60" as="geometry" />
        </mxCell>
        <mxCell id="11" value="แสดงผลจำนวนคำทั้งหมดในไฟล์" style="parallelogram;whiteSpace=wrap;html=1;" vertex="1" parent="1">
          <mxGeometry x="160" y="820" width="200" height="60" as="geometry" />
        </mxCell>
        <mxCell id="12" value="ปิดไฟล์ (fclose)" style="rectangle;whiteSpace=wrap;html=1;" vertex="1" parent="1">
          <mxGeometry x="180" y="910" width="160" height="60" as="geometry" />
        </mxCell>
        <mxCell id="13" value="Stop" style="ellipse;whiteSpace=wrap;html=1;" vertex="1" parent="1">
          <mxGeometry x="200" y="1000" width="120" height="50" as="geometry" />
        </mxCell>
        <mxCell id="14" edge="1" parent="1" source="2" target="3">
          <mxGeometry relative="1" as="geometry" />
        </mxCell>
        <mxCell id="15" edge="1" parent="1" source="3" target="4">
          <mxGeometry relative="1" as="geometry" />
        </mxCell>
        <mxCell id="16" edge="1" parent="1" source="4" target="5">
          <mxGeometry relative="1" as="geometry" />
        </mxCell>
        <mxCell id="17" edge="1" parent="1" source="5" target="6">
          <mxGeometry relative="1" as="geometry" />
        </mxCell>
        <mxCell id="18" value="False" edge="1" parent="1" source="6" target="7">
          <mxGeometry relative="1" as="geometry" />
        </mxCell>
        <mxCell id="19" value="True" edge="1" parent="1" source="6" target="8">
          <mxGeometry relative="1" as="geometry" />
        </mxCell>
        <mxCell id="20" edge="1" parent="1" source="8" target="9">
          <mxGeometry relative="1" as="geometry" />
        </mxCell>
        <mxCell id="21" value="True" edge="1" parent="1" source="9" target="10">
          <mxGeometry relative="1" as="geometry" />
        </mxCell>
        <mxCell id="22" edge="1" parent="1" source="10" target="9">
          <mxGeometry relative="1" as="geometry" />
        </mxCell>
        <mxCell id="23" value="False" edge="1" parent="1" source="9" target="11">
          <mxGeometry relative="1" as="geometry" />
        </mxCell>
        <mxCell id="24" edge="1" parent="1" source="11" target="12">
          <mxGeometry relative="1" as="geometry" />
        </mxCell>
        <mxCell id="25" edge="1" parent="1" source="12" target="13">
          <mxGeometry relative="1" as="geometry" />
        </mxCell>
        <mxCell id="26" edge="1" parent="1" source="7" target="13">
          <mxGeometry relative="1" as="geometry" />
        </mxCell>
      </root>
    </mxGraphModel>
  </diagram>
</mxfile>
